<?xml version="1.0" encoding="UTF-8" standalone="no"?><svg xmlns="http://www.w3.org/2000/svg" xmlns:xlink= "http://www.w3.org/1999/xlink" width="600" height="390" aria-label="A chart." style="overflow: hidden;"><defs id="_ABSTRACT_RENDERER_ID_563"><clipPath id="_ABSTRACT_RENDERER_ID_564"><rect x="115" y="75" width="371" height="241"></rect></clipPath><filter id="_ABSTRACT_RENDERER_ID_565"><feGaussianBlur in="SourceAlpha" stdDeviation="2"></feGaussianBlur><feOffset dx="1" dy="1"></feOffset><feComponentTransfer><feFuncA type="linear" slope="0.1"></feFuncA></feComponentTransfer><feMerge><feMergeNode></feMergeNode><feMergeNode in="SourceGraphic"></feMergeNode></feMerge></filter></defs><rect x="0" y="0" width="600" height="390" stroke="none" stroke-width="0" fill="#ffffff"></rect><g><text text-anchor="start" x="115" y="52.05" font-family="Arial" font-size="13" font-weight="bold" stroke="none" stroke-width="0" fill="#000000">"Snapshot" Benchmarking - GC Allocation per Model</text><rect x="115" y="41" width="371" height="13" stroke="none" stroke-width="0" fill-opacity="0" fill="#ffffff"></rect></g><g><rect x="499" y="75" width="88" height="13" stroke="none" stroke-width="0" fill-opacity="0" fill="#ffffff"></rect><g><rect x="499" y="75" width="88" height="13" stroke="none" stroke-width="0" fill-opacity="0" fill="#ffffff"></rect><g><text text-anchor="start" x="530" y="86.05" font-family="Arial" font-size="13" stroke="none" stroke-width="0" fill="#222222">File Size</text></g><path d="M499,81.5L525,81.5" stroke="#3366cc" stroke-width="3" fill-opacity="1" fill="none"></path><circle cx="512" cy="81.5" r="4.5" stroke="none" stroke-width="0" fill="#3366cc"></circle></g></g><g><rect x="115" y="75" width="371" height="241" stroke="none" stroke-width="0" fill-opacity="0" fill="#ffffff"></rect><g clip-path="url(https://www.rapidtables.com/tools/line-graph.html#_ABSTRACT_RENDERER_ID_564)"><g><rect x="115" y="75" width="1" height="241" stroke="none" stroke-width="0" fill="#cccccc"></rect><rect x="226" y="75" width="1" height="241" stroke="none" stroke-width="0" fill="#cccccc"></rect><rect x="291" y="75" width="1" height="241" stroke="none" stroke-width="0" fill="#cccccc"></rect><rect x="337" y="75" width="1" height="241" stroke="none" stroke-width="0" fill="#cccccc"></rect><rect x="373" y="75" width="1" height="241" stroke="none" stroke-width="0" fill="#cccccc"></rect><rect x="403" y="75" width="1" height="241" stroke="none" stroke-width="0" fill="#cccccc"></rect><rect x="427" y="75" width="1" height="241" stroke="none" stroke-width="0" fill="#cccccc"></rect><rect x="449" y="75" width="1" height="241" stroke="none" stroke-width="0" fill="#cccccc"></rect><rect x="468" y="75" width="1" height="241" stroke="none" stroke-width="0" fill="#cccccc"></rect><rect x="485" y="75" width="1" height="241" stroke="none" stroke-width="0" fill="#cccccc"></rect><rect x="180" y="75" width="1" height="241" stroke="none" stroke-width="0" fill="#ebebeb"></rect><rect x="262" y="75" width="1" height="241" stroke="none" stroke-width="0" fill="#ebebeb"></rect><rect x="316" y="75" width="1" height="241" stroke="none" stroke-width="0" fill="#ebebeb"></rect><rect x="356" y="75" width="1" height="241" stroke="none" stroke-width="0" fill="#ebebeb"></rect><rect x="389" y="75" width="1" height="241" stroke="none" stroke-width="0" fill="#ebebeb"></rect><rect x="415" y="75" width="1" height="241" stroke="none" stroke-width="0" fill="#ebebeb"></rect><rect x="438" y="75" width="1" height="241" stroke="none" stroke-width="0" fill="#ebebeb"></rect><rect x="458" y="75" width="1" height="241" stroke="none" stroke-width="0" fill="#ebebeb"></rect><rect x="476" y="75" width="1" height="241" stroke="none" stroke-width="0" fill="#ebebeb"></rect><rect x="115" y="315" width="371" height="1" stroke="none" stroke-width="0" fill="#cccccc"></rect><rect x="115" y="226" width="371" height="1" stroke="none" stroke-width="0" fill="#cccccc"></rect><rect x="115" y="180" width="371" height="1" stroke="none" stroke-width="0" fill="#cccccc"></rect><rect x="115" y="75" width="371" height="1" stroke="none" stroke-width="0" fill="#cccccc"></rect><rect x="115" y="259" width="371" height="1" stroke="none" stroke-width="0" fill="#ebebeb"></rect><rect x="115" y="249" width="371" height="1" stroke="none" stroke-width="0" fill="#ebebeb"></rect><rect x="115" y="240" width="371" height="1" stroke="none" stroke-width="0" fill="#ebebeb"></rect><rect x="115" y="233" width="371" height="1" stroke="none" stroke-width="0" fill="#ebebeb"></rect><rect x="115" y="220" width="371" height="1" stroke="none" stroke-width="0" fill="#ebebeb"></rect><rect x="115" y="214" width="371" height="1" stroke="none" stroke-width="0" fill="#ebebeb"></rect><rect x="115" y="209" width="371" height="1" stroke="none" stroke-width="0" fill="#ebebeb"></rect><rect x="115" y="204" width="371" height="1" stroke="none" stroke-width="0" fill="#ebebeb"></rect><rect x="115" y="199" width="371" height="1" stroke="none" stroke-width="0" fill="#ebebeb"></rect><rect x="115" y="195" width="371" height="1" stroke="none" stroke-width="0" fill="#ebebeb"></rect><rect x="115" y="191" width="371" height="1" stroke="none" stroke-width="0" fill="#ebebeb"></rect><rect x="115" y="187" width="371" height="1" stroke="none" stroke-width="0" fill="#ebebeb"></rect><rect x="115" y="184" width="371" height="1" stroke="none" stroke-width="0" fill="#ebebeb"></rect><rect x="115" y="154" width="371" height="1" stroke="none" stroke-width="0" fill="#ebebeb"></rect><rect x="115" y="135" width="371" height="1" stroke="none" stroke-width="0" fill="#ebebeb"></rect><rect x="115" y="120" width="371" height="1" stroke="none" stroke-width="0" fill="#ebebeb"></rect><rect x="115" y="108" width="371" height="1" stroke="none" stroke-width="0" fill="#ebebeb"></rect><rect x="115" y="98" width="371" height="1" stroke="none" stroke-width="0" fill="#ebebeb"></rect><rect x="115" y="90" width="371" height="1" stroke="none" stroke-width="0" fill="#ebebeb"></rect><rect x="115" y="82" width="371" height="1" stroke="none" stroke-width="0" fill="#ebebeb"></rect></g><g><rect x="115" y="315" width="371" height="1" stroke="none" stroke-width="0" fill="#333333"></rect></g><g><path d="M115.5,262.69388529321355L226.73058339784103,230.3835941675896L291.7963036189152,209.14432827580544L337.96116679568206,195.54294599335697L373.7694166021589,174.6826869531643L403.0268870167563,165.26920195996382L427.7637257852678,158.8854062675333L449.1917501935231,150.13845445647598L468.0926072378305,138.88143177056673L484.99999999999994,132.3254813541468" stroke="#3366cc" stroke-width="3" fill-opacity="1" fill="none"></path></g></g><g><circle cx="115.5" cy="262.69388529321355" r="4.5" stroke="none" stroke-width="0" fill="#3366cc"></circle><circle cx="226.73058339784103" cy="230.3835941675896" r="4.5" stroke="none" stroke-width="0" fill="#3366cc"></circle><circle cx="291.7963036189152" cy="209.14432827580544" r="4.5" stroke="none" stroke-width="0" fill="#3366cc"></circle><circle cx="337.96116679568206" cy="195.54294599335697" r="4.5" stroke="none" stroke-width="0" fill="#3366cc"></circle><circle cx="373.7694166021589" cy="174.6826869531643" r="4.5" stroke="none" stroke-width="0" fill="#3366cc"></circle><circle cx="403.0268870167563" cy="165.26920195996382" r="4.5" stroke="none" stroke-width="0" fill="#3366cc"></circle><circle cx="427.7637257852678" cy="158.8854062675333" r="4.5" stroke="none" stroke-width="0" fill="#3366cc"></circle><circle cx="449.1917501935231" cy="150.13845445647598" r="4.5" stroke="none" stroke-width="0" fill="#3366cc"></circle><circle cx="468.0926072378305" cy="138.88143177056673" r="4.5" stroke="none" stroke-width="0" fill="#3366cc"></circle><circle cx="484.99999999999994" cy="132.3254813541468" r="4.5" stroke="none" stroke-width="0" fill="#3366cc"></circle></g><g><g><text text-anchor="middle" x="115.5" y="335.05" font-family="Arial" font-size="13" stroke="none" stroke-width="0" fill="#444444">1</text></g><g><text text-anchor="middle" x="226.7306" y="335.05" font-family="Arial" font-size="13" stroke="none" stroke-width="0" fill="#444444">2</text></g><g><text text-anchor="middle" x="291.7963" y="335.05" font-family="Arial" font-size="13" stroke="none" stroke-width="0" fill="#444444">3</text></g><g><text text-anchor="middle" x="337.9612" y="335.05" font-family="Arial" font-size="13" stroke="none" stroke-width="0" fill="#444444">4</text></g><g><text text-anchor="middle" x="373.7694" y="335.05" font-family="Arial" font-size="13" stroke="none" stroke-width="0" fill="#444444">5</text></g><g><text text-anchor="middle" x="403.0269" y="335.05" font-family="Arial" font-size="13" stroke="none" stroke-width="0" fill="#444444">6</text></g><g><text text-anchor="middle" x="427.7637" y="335.05" font-family="Arial" font-size="13" stroke="none" stroke-width="0" fill="#444444">7</text></g><g><text text-anchor="middle" x="449.1918" y="335.05" font-family="Arial" font-size="13" stroke="none" stroke-width="0" fill="#444444">8</text></g><g><text text-anchor="middle" x="468.0926" y="335.05" font-family="Arial" font-size="13" stroke="none" stroke-width="0" fill="#444444">9</text></g><g><text text-anchor="middle" x="485" y="335.05" font-family="Arial" font-size="13" stroke="none" stroke-width="0" fill="#444444">10</text></g><g><text text-anchor="end" x="102" y="319.55" font-family="Arial" font-size="13" stroke="none" stroke-width="0" fill="#444444">0</text></g><g><text text-anchor="end" x="102" y="230.8805" font-family="Arial" font-size="13" stroke="none" stroke-width="0" fill="#444444">500</text></g><g><text text-anchor="end" x="102" y="185.476" font-family="Arial" font-size="13" stroke="none" stroke-width="0" fill="#444444">1,000</text></g><g><text text-anchor="end" x="102" y="80.05" font-family="Arial" font-size="13" stroke="none" stroke-width="0" fill="#444444">5,000</text></g></g></g><g><g><text text-anchor="middle" x="300.5" y="368.05" font-family="Arial" font-size="13" font-style="italic" stroke="none" stroke-width="0" fill="#222222">Number of serialized models</text><rect x="115" y="357" width="371" height="13" stroke="none" stroke-width="0" fill-opacity="0" fill="#ffffff"></rect></g><g><text text-anchor="middle" x="39.05" y="195.5" font-family="Arial" font-size="13" font-style="italic" transform="rotate(-90 39.05 195.5)" stroke="none" stroke-width="0" fill="#222222">GC Size (Bytes in decimal)</text><path d="M27.999999999999996,316L28.00000000000001,75L41.00000000000001,75L40.99999999999999,316Z" stroke="none" stroke-width="0" fill-opacity="0" fill="#ffffff"></path></g></g><g></g></svg>